<svg xmlns="http://www.w3.org/2000/svg" width="21" height="140" viewBox="0 0 21 140"><g><g><g><path fill="#fff" d="M10.29.015l3.182 6.573 7.116 1.055-5.15 5.116 1.216 7.224-6.365-3.411-6.365 3.411L5.14 12.76-.01 7.643l7.117-1.055z"/></g><g><path fill="#fff" d="M10.512 30.015l3.182 6.574 7.116 1.054-5.149 5.116 1.216 7.224-6.365-3.411-6.365 3.411 1.216-7.224-5.15-5.116 7.116-1.054z"/></g><g><path fill="#fff" d="M10.266 60.016l3.182 6.573 7.116 1.054-5.149 5.117 1.216 7.224-6.365-3.412L3.9 79.984l1.216-7.224-5.15-5.117 7.116-1.054z"/></g><g><path fill="#fff" d="M10.488 90.015l3.183 6.574 7.116 1.054-5.15 5.116 1.217 7.224-6.365-3.411-6.365 3.411 1.215-7.224-5.15-5.116 7.117-1.054z"/></g><g><path fill="#fff" d="M14.209 127.826l-3.21-5.924-3.208 5.924a.63.63 0 0 1-.626.297H3.127l3.897 3.897a.64.64 0 0 1 .215.664l-1.403 5.188 4.669-3.316a.667.667 0 0 1 .495-.17.667.667 0 0 1 .495.17l4.668 3.316-1.402-5.188a.64.64 0 0 1 .214-.664l3.898-3.897h-4.038a.63.63 0 0 1-.626-.297zm-8.984 11.99a.632.632 0 0 1-.123.088.653.653 0 0 1-.865-.171.574.574 0 0 1-.123-.353.638.638 0 0 1 .022-.192l1.766-6.534-4.667-4.667a.626.626 0 0 1-.199-.279.62.62 0 0 1 .64-.834h5.22l3.54-6.534a.625.625 0 0 1 .672-.337.625.625 0 0 1 .456.337l3.54 6.534h5.22a.619.619 0 0 1 .642.828.626.626 0 0 1-.202.285l-4.667 4.667 1.767 6.534a.638.638 0 0 1 .022.192.574.574 0 0 1-.123.353.653.653 0 0 1-.866.17.632.632 0 0 1-.122-.088l-5.775-4.1z"/></g></g></g></svg>